<?xml version="1.0" standalone="no"?>
<!DOCTYPE svg PUBLIC "-//W3C//DTD SVG 20010904//EN"
 "http://www.w3.org/TR/2001/REC-SVG-20010904/DTD/svg10.dtd">
<svg version="1.0" xmlns="http://www.w3.org/2000/svg"
 width="348.000000pt" height="348.000000pt" viewBox="0 0 348.000000 348.000000"
 preserveAspectRatio="xMidYMid meet">

<g transform="translate(0.000000,348.000000) scale(0.100000,-0.100000)"
fill="#000000" stroke="none">
<path d="M578 2960 c-71 -38 -106 -118 -86 -200 10 -42 54 -88 572 -608 373
-374 575 -569 602 -582 51 -25 97 -25 148 0 27 13 229 208 602 582 518 520
562 566 572 608 34 140 -100 260 -235 209 -15 -5 -250 -231 -520 -502 l-493
-492 -492 492 c-271 271 -506 497 -521 502 -43 17 -108 12 -149 -9z"/>
<path d="M582 1909 c-23 -12 -51 -34 -62 -49 -20 -28 -41 -103 -35 -124 2 -6
6 -24 10 -41 5 -22 148 -172 568 -593 309 -310 579 -572 599 -583 45 -23 108
-25 151 -3 39 19 1142 1117 1164 1158 20 39 19 114 -2 160 -22 46 -79 86 -133
93 -86 12 -83 14 -610 -511 l-492 -491 -488 487 c-335 336 -499 492 -524 503
-51 21 -95 19 -146 -6z"/>
</g>
</svg>
